G04 Layer_Color=8388736*
%FSLAX25Y25*%
%MOIN*%
G70*
G01*
G75*
%ADD29C,0.06706*%
%ADD30C,0.05131*%
%ADD31C,0.04540*%
%ADD32C,0.28359*%
%ADD33C,0.18516*%
%ADD34C,0.07099*%
%ADD35C,0.08674*%
G04:AMPARAMS|DCode=36|XSize=86.74mil|YSize=106.42mil|CornerRadius=23.68mil|HoleSize=0mil|Usage=FLASHONLY|Rotation=0.000|XOffset=0mil|YOffset=0mil|HoleType=Round|Shape=RoundedRectangle|*
%AMROUNDEDRECTD36*
21,1,0.08674,0.05905,0,0,0.0*
21,1,0.03937,0.10642,0,0,0.0*
1,1,0.04737,0.01968,-0.02953*
1,1,0.04737,-0.01968,-0.02953*
1,1,0.04737,-0.01968,0.02953*
1,1,0.04737,0.01968,0.02953*
%
%ADD36ROUNDEDRECTD36*%
%ADD37R,0.05918X0.08674*%
%ADD38R,0.08674X0.04737*%
%ADD39R,0.08674X0.05918*%
%ADD40C,0.03162*%
%ADD41C,0.03950*%
D29*
X296260Y100394D02*
D03*
X247047D02*
D03*
X370079Y231299D02*
D03*
Y217520D02*
D03*
X384842Y108268D02*
D03*
X335630D02*
D03*
X377953Y203740D02*
D03*
Y154528D02*
D03*
X167323Y230315D02*
D03*
Y190945D02*
D03*
X222441Y238189D02*
D03*
Y198819D02*
D03*
X196850Y202756D02*
D03*
Y143701D02*
D03*
X143701Y208661D02*
D03*
Y169291D02*
D03*
X182087Y281496D02*
D03*
X132874D02*
D03*
X120079Y237205D02*
D03*
Y286417D02*
D03*
X293307Y26575D02*
D03*
Y12795D02*
D03*
X85630Y62992D02*
D03*
X99410D02*
D03*
X300197Y55118D02*
D03*
X286417D02*
D03*
X255906Y12795D02*
D03*
Y26575D02*
D03*
X376969Y133858D02*
D03*
X363189D02*
D03*
X85630Y27559D02*
D03*
X99410D02*
D03*
X255906Y62008D02*
D03*
Y48228D02*
D03*
X28543Y289370D02*
D03*
X42323D02*
D03*
X15748Y149606D02*
D03*
Y208661D02*
D03*
X41339Y224410D02*
D03*
Y263779D02*
D03*
X19685Y94488D02*
D03*
X78740D02*
D03*
X41339Y169291D02*
D03*
Y208661D02*
D03*
X169291Y175197D02*
D03*
Y116142D02*
D03*
X167323Y262795D02*
D03*
Y249016D02*
D03*
X94488Y94488D02*
D03*
X153543D02*
D03*
X242126Y149606D02*
D03*
X301181D02*
D03*
X235236Y261811D02*
D03*
X249016D02*
D03*
X265748Y122047D02*
D03*
X324803D02*
D03*
X222441Y143701D02*
D03*
Y183071D02*
D03*
X324803Y202756D02*
D03*
Y242126D02*
D03*
X228346Y94488D02*
D03*
X169291D02*
D03*
X190945Y122047D02*
D03*
X250000D02*
D03*
X324803Y147638D02*
D03*
Y187008D02*
D03*
X314961Y13622D02*
D03*
Y23622D02*
D03*
Y33622D02*
D03*
X247047Y82677D02*
D03*
X296260D02*
D03*
X135827Y26575D02*
D03*
Y75787D02*
D03*
X210630Y71850D02*
D03*
Y22638D02*
D03*
X4921Y66929D02*
D03*
X54134D02*
D03*
X192913Y22638D02*
D03*
Y71850D02*
D03*
X118110Y75787D02*
D03*
Y26575D02*
D03*
X353346Y90551D02*
D03*
X304134D02*
D03*
X66929Y4921D02*
D03*
Y54134D02*
D03*
X64961Y284842D02*
D03*
Y235630D02*
D03*
X73819Y350394D02*
D03*
X24606D02*
D03*
X83661Y151575D02*
D03*
X34449D02*
D03*
X117126Y368110D02*
D03*
X166339D02*
D03*
X21654Y268701D02*
D03*
Y219488D02*
D03*
X83661Y133858D02*
D03*
X34449D02*
D03*
Y116142D02*
D03*
X83661D02*
D03*
X73819Y368110D02*
D03*
X24606D02*
D03*
X24606Y314961D02*
D03*
X73819D02*
D03*
X117126Y350394D02*
D03*
X166339D02*
D03*
X24606Y332677D02*
D03*
X73819D02*
D03*
X86614Y323819D02*
D03*
Y373031D02*
D03*
X117126Y332677D02*
D03*
X166339D02*
D03*
X141732Y219488D02*
D03*
Y268701D02*
D03*
X150591Y116142D02*
D03*
X101378D02*
D03*
X150591Y133858D02*
D03*
X101378D02*
D03*
X150591Y151575D02*
D03*
X101378D02*
D03*
X104331Y323819D02*
D03*
Y373031D02*
D03*
X117126Y314961D02*
D03*
X166339D02*
D03*
Y297244D02*
D03*
X117126D02*
D03*
X267717Y237205D02*
D03*
Y286417D02*
D03*
X321850Y364173D02*
D03*
X371063D02*
D03*
X248031Y319882D02*
D03*
Y369094D02*
D03*
X344488Y227362D02*
D03*
Y178150D02*
D03*
X192913Y262795D02*
D03*
Y213583D02*
D03*
X344488Y170276D02*
D03*
Y121063D02*
D03*
X321850Y346457D02*
D03*
X371063D02*
D03*
X214567Y249016D02*
D03*
Y298228D02*
D03*
X310039Y328740D02*
D03*
X260827D02*
D03*
X274606Y297244D02*
D03*
X225394D02*
D03*
X339567Y250000D02*
D03*
X388779D02*
D03*
X321850Y328740D02*
D03*
X371063D02*
D03*
X310039Y346457D02*
D03*
X260827D02*
D03*
X360236Y203740D02*
D03*
Y154528D02*
D03*
X228346Y22638D02*
D03*
Y71850D02*
D03*
X321850Y311024D02*
D03*
X371063D02*
D03*
X388779Y267717D02*
D03*
X339567D02*
D03*
X310039Y364173D02*
D03*
X260827D02*
D03*
X388779Y285433D02*
D03*
X339567D02*
D03*
X374016Y90551D02*
D03*
X383858D02*
D03*
X364173D02*
D03*
X51181Y383858D02*
D03*
X31496D02*
D03*
X41339D02*
D03*
X86614D02*
D03*
X66929D02*
D03*
X76772D02*
D03*
X122047D02*
D03*
X102362D02*
D03*
X112205D02*
D03*
X157480D02*
D03*
X137795D02*
D03*
X147638D02*
D03*
X255906D02*
D03*
X236221D02*
D03*
X246063D02*
D03*
X291339D02*
D03*
X271654D02*
D03*
X281496D02*
D03*
X326772D02*
D03*
X307087D02*
D03*
X316929D02*
D03*
X362205D02*
D03*
X342520D02*
D03*
X352362D02*
D03*
D30*
X243622Y195709D02*
D03*
X253622D02*
D03*
X263622D02*
D03*
X273622D02*
D03*
X283622D02*
D03*
X293622D02*
D03*
X303622D02*
D03*
Y165709D02*
D03*
X293622D02*
D03*
X283622D02*
D03*
X273622D02*
D03*
X263622D02*
D03*
X253622D02*
D03*
X243622D02*
D03*
X310276Y303622D02*
D03*
Y293622D02*
D03*
Y283622D02*
D03*
Y273622D02*
D03*
Y263622D02*
D03*
Y253622D02*
D03*
Y243622D02*
D03*
X280276D02*
D03*
Y253622D02*
D03*
Y263622D02*
D03*
Y273622D02*
D03*
Y283622D02*
D03*
Y293622D02*
D03*
Y303622D02*
D03*
X243622Y231929D02*
D03*
X253622D02*
D03*
X263622D02*
D03*
X273622D02*
D03*
X283622D02*
D03*
X293622D02*
D03*
X303622D02*
D03*
Y201929D02*
D03*
X293622D02*
D03*
X283622D02*
D03*
X273622D02*
D03*
X263622D02*
D03*
X253622D02*
D03*
X243622D02*
D03*
X62520Y192165D02*
D03*
X72520D02*
D03*
X82520D02*
D03*
X92520D02*
D03*
X102520D02*
D03*
X112520D02*
D03*
X122520D02*
D03*
Y162165D02*
D03*
X112520D02*
D03*
X102520D02*
D03*
X92520D02*
D03*
X82520D02*
D03*
X72520D02*
D03*
X62520D02*
D03*
X109488Y303622D02*
D03*
Y293622D02*
D03*
Y283622D02*
D03*
Y273622D02*
D03*
Y263622D02*
D03*
Y253622D02*
D03*
Y243622D02*
D03*
X79488D02*
D03*
Y253622D02*
D03*
Y263622D02*
D03*
Y273622D02*
D03*
Y283622D02*
D03*
Y293622D02*
D03*
Y303622D02*
D03*
X62520Y229567D02*
D03*
X72520D02*
D03*
X82520D02*
D03*
X92520D02*
D03*
X102520D02*
D03*
X112520D02*
D03*
X122520D02*
D03*
Y199567D02*
D03*
X112520D02*
D03*
X102520D02*
D03*
X92520D02*
D03*
X82520D02*
D03*
X72520D02*
D03*
X62520D02*
D03*
X322362Y79961D02*
D03*
X332362D02*
D03*
X342362D02*
D03*
X352362D02*
D03*
X362362D02*
D03*
X372362D02*
D03*
X382362D02*
D03*
Y49961D02*
D03*
X372362D02*
D03*
X362362D02*
D03*
X352362D02*
D03*
X342362D02*
D03*
X332362D02*
D03*
X322362D02*
D03*
D31*
X158465Y40689D02*
D03*
X154862Y44291D02*
D03*
X153543Y49213D02*
D03*
X154862Y54134D02*
D03*
X158465Y57736D02*
D03*
X163386Y59055D02*
D03*
X168307Y57736D02*
D03*
X171910Y54134D02*
D03*
X173228Y49213D02*
D03*
X171910Y44291D02*
D03*
X168307Y40689D02*
D03*
X163386Y39370D02*
D03*
D32*
X196850Y375984D02*
D03*
Y320866D02*
D03*
D33*
X377953Y23622D02*
D03*
D34*
X82677Y5906D02*
D03*
X102362D02*
D03*
X92520D02*
D03*
X5906Y118110D02*
D03*
Y137795D02*
D03*
Y127953D02*
D03*
Y84646D02*
D03*
Y104331D02*
D03*
Y94488D02*
D03*
X175197Y5906D02*
D03*
X155512D02*
D03*
X165354D02*
D03*
X139764D02*
D03*
X120079D02*
D03*
X129921D02*
D03*
D35*
X201693Y7874D02*
D03*
X211693D02*
D03*
D36*
X7874Y311024D02*
D03*
Y328740D02*
D03*
Y346457D02*
D03*
Y364173D02*
D03*
X383858D02*
D03*
Y346457D02*
D03*
Y328740D02*
D03*
Y311024D02*
D03*
D37*
X8661Y25591D02*
D03*
X53150Y35433D02*
D03*
D38*
X25984Y44488D02*
D03*
X39764Y5118D02*
D03*
D39*
X35827Y15354D02*
D03*
D40*
X122047Y125984D02*
D03*
X74803Y106299D02*
D03*
X244094Y212598D02*
D03*
X322835Y356299D02*
D03*
X110236Y43307D02*
D03*
X88583Y165354D02*
D03*
X167323Y13780D02*
D03*
D41*
X188976Y84646D02*
D03*
X196850Y293307D02*
D03*
X376496Y65984D02*
D03*
X267717Y181102D02*
D03*
X183071Y125984D02*
D03*
X20669Y109252D02*
D03*
X51181Y78740D02*
D03*
X248524Y91043D02*
D03*
X293622Y136142D02*
D03*
X232283Y216535D02*
D03*
X319882Y158465D02*
D03*
M02*
