G04 Layer_Color=8388736*
%FSLAX25Y25*%
%MOIN*%
G70*
G01*
G75*
%ADD27C,0.00787*%
%ADD28C,0.01000*%
%ADD42C,0.00600*%
D27*
X0Y0D02*
X393701D01*
Y393701D01*
X0D02*
X393701D01*
X0Y0D02*
Y393701D01*
D28*
X393701Y395094D02*
Y422260D01*
X0Y395094D02*
Y422260D01*
X213345Y421260D02*
X393701D01*
X0D02*
X177156D01*
X387701Y423260D02*
X393701Y421260D01*
X387701Y419260D02*
X393701Y421260D01*
X0D02*
X6000Y419260D01*
X0Y421260D02*
X6000Y423260D01*
X-24622Y393701D02*
X-1394D01*
X-24622Y0D02*
X-1394D01*
X-23622Y213345D02*
Y393701D01*
Y0D02*
Y177156D01*
X-25622Y387701D02*
X-23622Y393701D01*
X-21622Y387701D01*
X-23622Y0D02*
X-21622Y6000D01*
X-25622D02*
X-23622Y0D01*
D42*
X178756Y416661D02*
X180755D01*
X179755D01*
Y422659D01*
X178756Y421660D01*
X183754D02*
X184754Y422659D01*
X186753D01*
X187753Y421660D01*
Y417661D01*
X186753Y416661D01*
X184754D01*
X183754Y417661D01*
Y421660D01*
X189752D02*
X190752Y422659D01*
X192751D01*
X193751Y421660D01*
Y417661D01*
X192751Y416661D01*
X190752D01*
X189752Y417661D01*
Y421660D01*
X196750Y415661D02*
X197750Y416661D01*
Y417661D01*
X196750D01*
Y416661D01*
X197750D01*
X196750Y415661D01*
X195750Y414662D01*
X201748Y421660D02*
X202748Y422659D01*
X204747D01*
X205747Y421660D01*
Y417661D01*
X204747Y416661D01*
X202748D01*
X201748Y417661D01*
Y421660D01*
X207746D02*
X208746Y422659D01*
X210745D01*
X211745Y421660D01*
Y417661D01*
X210745Y416661D01*
X208746D01*
X207746Y417661D01*
Y421660D01*
X-19023Y178756D02*
Y180755D01*
Y179755D01*
X-25021D01*
X-24022Y178756D01*
Y183754D02*
X-25021Y184754D01*
Y186753D01*
X-24022Y187753D01*
X-20023D01*
X-19023Y186753D01*
Y184754D01*
X-20023Y183754D01*
X-24022D01*
Y189752D02*
X-25021Y190752D01*
Y192751D01*
X-24022Y193751D01*
X-20023D01*
X-19023Y192751D01*
Y190752D01*
X-20023Y189752D01*
X-24022D01*
X-18024Y196750D02*
X-19023Y197750D01*
X-20023D01*
Y196750D01*
X-19023D01*
Y197750D01*
X-18024Y196750D01*
X-17024Y195750D01*
X-24022Y201748D02*
X-25021Y202748D01*
Y204747D01*
X-24022Y205747D01*
X-20023D01*
X-19023Y204747D01*
Y202748D01*
X-20023Y201748D01*
X-24022D01*
Y207746D02*
X-25021Y208746D01*
Y210745D01*
X-24022Y211745D01*
X-20023D01*
X-19023Y210745D01*
Y208746D01*
X-20023Y207746D01*
X-24022D01*
M02*
