M48
;Layer_Color=9474304
;FILE_FORMAT=2:4
INCH,LZ
;TYPE=PLATED
T1F00S00C0.0118
T2F00S00C0.0197
T3F00S00C0.0236
T5F00S00C0.0276
T7F00S00C0.0394
T8F00S00C0.0433
T9F00S00C0.0551
T10F00S00C0.1378
T11F00S00C0.1417
%
T01
X011024Y004331
X016732Y001378
X024409Y02126
X008858Y016535
X012205Y012598
X00748Y01063
X032283Y03563
T02
X03765Y006598
X031988Y015846
X029362Y013614
X026772Y01811
X024852Y009104
X018898Y008465
X018307Y012598
X002067Y010925
X005118Y007874
X019685Y029331
X023228Y021654
T03
X015846Y004069
X016339Y003937
X016831Y004069
X017191Y004429
X017323Y004921
X017191Y005413
X016831Y005774
X015846
X015486Y005413
X015354Y004921
X015486Y004429
X016339Y005906
T05
X032236Y004996
X033236
X034236
X035236
X036236
X037236
X038236
Y007996
X037236
X036236
X035236
X034236
X033236
X032236
X030362Y016571
X029362
X028362
X027362
X026362
X025362
X024362
Y019571
Y020193
X025362
Y019571
X026362
Y020193
X027362
Y019571
X028362
Y020193
X029362
Y019571
X030362
Y020193
X012252Y019957
Y019217
X011252
Y019957
X010252
Y019217
X009252
Y019957
X008252
Y019217
X007252
Y019957
X006252
Y019217
Y016217
X007252
X008252
X009252
X010252
X011252
X012252
Y022957
X011252
X010252
X009252
X008252
X007252
X006252
X007949Y024362
Y025362
Y026362
Y027362
Y028362
Y029362
Y030362
X010949
Y029362
Y028362
Y027362
Y026362
Y025362
Y024362
X024362Y023193
X025362
X026362
X027362
X028362
X029362
X030362
X031028Y024362
Y025362
Y026362
Y027362
Y028362
Y029362
Y030362
X028028
Y029362
Y028362
Y027362
Y026362
Y025362
Y024362
T07
X008268Y000591
X009252
X010236
X012008
X012992
X013976
X015551
X016535
X01752
X000591Y008465
Y009449
Y010433
Y011811
Y012795
Y01378
T08
X006693Y000492
X008563Y002756
X009941
X011811Y002657
X013583
X019291Y002264
X021063
X021169Y000787
X020169
X006693Y005413
X022835Y002264
X025591Y002657
Y00128
Y004823
X028642Y005512
X03002
X029331Y002657
Y00128
X031496Y001362
Y002362
Y003362
X037402Y009055
X038386
X038484Y010827
X037697Y013386
X037795Y015453
Y020374
X036024
X03248Y020276
Y018701
X034449Y017815
Y017028
X036024Y015453
X036319Y013386
X034449Y012106
X03248Y012205
X033563Y010827
X035335Y009055
X036417
X030413
X029626Y008268
Y010039
X024705
Y008268
X022835Y007185
Y009449
X025Y012205
X026575
X024213Y014961
X022244Y01437
Y018307
Y019882
X030118Y014961
X03248Y014764
X025591Y006201
X021063Y007185
X019291
X016929Y009449
X015354
X015059Y011614
Y013386
Y015157
X01437Y016929
X016929Y01752
X016732Y019094
X019685Y020276
X019291Y021358
X01437Y020866
X010138Y015157
X008366Y015157
X008366Y013386
X010138Y013386
Y011614
X008366
X007874Y009449
X009449
X009941Y006299
X008563
X011811Y007579
X013583
X016929Y011614
X019094Y012205
X019685Y01437
X003445Y015157
X003445Y013386
Y011614
X001969Y009449
X000492Y006693
X005413
X004134Y016929
Y020866
X001575
Y014961
X002165Y021949
X004134Y022441
Y026378
X002165Y02687
X002854Y028937
X004232
X002461Y031496
Y033268
X002461Y035039
Y036811
X007382
Y035039
X007382Y033268
Y031496
X008661Y032382
X010433
X011713Y033268
Y035039
Y036811
X016634
Y035039
Y033268
Y031496
Y029724
X018209Y02815
X019291Y02628
X016732Y02628
Y024902
Y023031
X014173Y021949
X012008Y02372
Y028642
X011713Y029724
Y031496
X013287Y02815
X014173Y02687
X006496Y028484
Y023563
X022244Y023819
X021457Y024902
X023524Y026181
X024902
X026772Y02372
Y028642
X027461Y029724
X026083Y032874
Y034646
Y036417
X024803Y036909
Y031988
X022539Y029724
X021457Y029823
X032185Y031102
Y032874
X031004Y032874
Y034646
X032185
Y036417
X031004Y036417
X033957Y028543
Y026772
Y025
X03248Y024213
X034449Y022736
X037008Y02313
Y021752
X038878Y025
Y026772
Y028543
X037106Y031102
Y032874
Y034646
Y036417
X03622Y038386
X035236
X034252
X032677
X031693
X030709
X029134
X02815
X027165
X025591
X024606
X023622
X015748
X014764
X01378
X012205
X01122
X010236
X010433Y037303
X008661
Y038386
X007677
X006693
X005118
X004134
X00315
T09
X000787Y031102
Y032874
Y034646
Y036417
X038386
Y034646
Y032874
Y031102
T10
X019685Y032087
Y037598
T11
X037795Y002362
M30
